<svg id="Layer_1" data-name="Layer 1" xmlns="http://www.w3.org/2000/svg" viewBox="0 0 256 256"><title>icon</title><rect x="0.48" width="255.52" height="255.52" style="fill:#0f0d0e"/><path d="M215.39,95.33c0,.65-.74,1.17-1.68,1.17s-1.82-.42-1.82-1.17.75-1.16,1.69-1.16S215.39,94.59,215.39,95.33Zm-10.08-1.45c-.22.64.42,1.39,1.4,1.58a1.52,1.52,0,0,0,2-.64c.19-.65-.43-1.4-1.4-1.69a1.66,1.66,0,0,0-2,.75Zm14.33-.55c-.94.22-1.59.84-1.49,1.58s.94,1.07,1.91.85,1.59-.85,1.49-1.5S220.58,93.23,219.64,93.33ZM241-30.87c-45,0-79.33,34.13-79.33,79.08,0,35.94,22.62,66.7,54.93,77.52,4.15.75,5.61-1.81,5.61-3.92s-.1-13.09-.1-19.9c0,0-22.69,4.86-27.45-9.65,0,0-3.7-9.44-9-11.87,0,0-7.42-5.08.52-5a17.11,17.11,0,0,1,12.51,8.36c7.09,12.51,19,8.92,23.62,6.78.75-5.19,2.85-8.78,5.19-10.92-18.12-2-36.4-4.64-36.4-35.82,0-8.91,2.47-13.38,7.65-19.08-.84-2.11-3.6-10.8.84-22,6.78-2.11,22.37,8.75,22.37,8.75a76.67,76.67,0,0,1,40.7,0S278.2.57,285,2.71c4.44,11.25,1.69,19.9.85,22,5.18,5.73,8.36,10.2,8.36,19.08,0,31.28-19.09,33.77-37.21,35.82,3,2.56,5.51,7.42,5.51,15,0,10.93-.09,24.44-.09,27.1,0,2.1,1.49,4.66,5.6,3.92,32.41-10.76,54.38-41.52,54.38-77.46C322.37,3.26,285.91-30.87,241-30.87ZM193.13,80.91c-.42.33-.33,1.07.22,1.69s1.27.74,1.69.32.32-1.07-.23-1.68S193.55,80.49,193.13,80.91Zm-3.5-2.62c-.23.42.09.94.74,1.26a1,1,0,0,0,1.4-.23c.22-.42-.1-.94-.75-1.26S189.85,78,189.63,78.29Zm10.5,11.53c-.52.43-.33,1.4.42,2s1.68.85,2.11.33.22-1.4-.43-2S200.55,89.31,200.13,89.82Zm-3.7-4.76c-.52.32-.52,1.17,0,1.91s1.4,1.07,1.82.75a1.48,1.48,0,0,0,0-2c-.46-.75-1.3-1.07-1.82-.65Z" style="fill:#fff;opacity:0.1"/><path d="M-47.48,179.57l33.6,92a70.45,70.45,0,0,1-33.6-92ZM64.37,204.7c0-8.71-3.11-14.73-5.79-19.43-3.58-5.79-6.92-10.73-6.92-16.52,0-6.49,4.9-12.51,11.82-12.51.3,0,.59,0,.92.06A70.42,70.42,0,0,0-42,169.54c1.66.07,3.21.1,4.54.1,7.35,0,18.77-.89,18.77-.89,3.8-.23,4.23,5.36.46,5.79,0,0-3.81.43-8,.66L-.64,251.47l15.43-46.21-11-30.06c-3.81-.23-7.38-.66-7.38-.66-3.81-.23-3.35-6,.43-5.79,0,0,11.62.89,18.53.89,7.35,0,18.77-.89,18.77-.89,3.81-.23,4.24,5.36.47,5.79,0,0-3.81.43-8,.66l25.46,75.71,7-23.47c3-9.73,5.29-16.72,5.29-22.74Zm-46.31,9.7L-3.06,275.8a70.23,70.23,0,0,0,43.27-1.12,5.16,5.16,0,0,1-.5-1Zm60.58-40a54.59,54.59,0,0,1,.46,7.25c0,7.15-1.32,15.16-5.36,25.23L52.22,269.11a70.48,70.48,0,0,0,26.42-94.67Zm20.29,33.8a82.18,82.18,0,0,1-82.09,82.09,82.09,82.09,0,0,1,0-164.18A82.18,82.18,0,0,1,98.93,208.24Zm-3.77,0a78.32,78.32,0,1,0-156.64,0,78.32,78.32,0,0,0,156.64,0Z" style="fill:#fff;opacity:0.1"/><path d="M75.91,144.88H61.26a.69.69,0,0,0-.69.69v7.16a.69.69,0,0,0,.69.69H67v8.89a17.18,17.18,0,0,1-4.83.44c-4.18,0-10-1.53-10-14.38s6.09-14.55,11.8-14.55a23.21,23.21,0,0,1,8.44,1.29.69.69,0,0,0,.82-.67l1.63-6.92a.65.65,0,0,0-.26-.54c-.55-.39-3.91-2.27-12.4-2.27-9.78,0-19.81,4.16-19.81,24.16s11.49,23,21.16,23a23.8,23.8,0,0,0,12.88-3.43.59.59,0,0,0,.22-.52V145.57A.69.69,0,0,0,75.91,144.88Z" style="fill:#fff"/><path d="M151.39,127.11a.68.68,0,0,0-.68-.69h-8.25a.68.68,0,0,0-.68.69V143H128.93V127.11a.68.68,0,0,0-.68-.69H120a.68.68,0,0,0-.68.69v43.15a.68.68,0,0,0,.68.69h8.25a.69.69,0,0,0,.68-.69V151.8h12.85l0,18.46a.69.69,0,0,0,.68.69h8.27a.68.68,0,0,0,.68-.69Z" style="fill:#fff"/><path d="M91.47,132.77a5.32,5.32,0,1,0-5.32,5.37A5.34,5.34,0,0,0,91.47,132.77Z" style="fill:#fff"/><path d="M90.88,161.16V141.24a.69.69,0,0,0-.68-.69H82a.79.79,0,0,0-.71.77v28.54c0,.84.52,1.09,1.2,1.09h7.41c.81,0,1-.4,1-1.11Z" style="fill:#fff"/><path d="M182.73,140.61h-8.18a.68.68,0,0,0-.68.69v21.16a9.22,9.22,0,0,1-5,1.53c-3,0-3.74-1.34-3.74-4.23V141.3a.68.68,0,0,0-.68-.69h-8.3a.68.68,0,0,0-.68.69v19.85c0,8.59,4.78,10.69,11.36,10.69a19.14,19.14,0,0,0,9.75-3s.21,1.58.3,1.76a.71.71,0,0,0,.6.38l5.29,0a.69.69,0,0,0,.68-.69v-29A.69.69,0,0,0,182.73,140.61Z" style="fill:#fff"/><path d="M205.1,139.64a15.35,15.35,0,0,0-7.81,2.08V127.11a.68.68,0,0,0-.68-.69h-8.27a.68.68,0,0,0-.68.69v43.15a.68.68,0,0,0,.68.69h5.74a.69.69,0,0,0,.6-.36,14,14,0,0,0,.35-2s3.38,3.2,9.78,3.2c7.52,0,11.83-3.81,11.83-17.11S209.75,139.64,205.1,139.64ZM201.87,164a9.9,9.9,0,0,1-4.76-1.37V148.92a10.78,10.78,0,0,1,4.23-1.37c2.95-.27,5.79.62,5.79,7.65C207.13,162.62,205.85,164.08,201.87,164Z" style="fill:#fff"/><path d="M114.58,140.55h-6.19v-8.18c0-.31-.16-.46-.52-.46H99.44c-.33,0-.51.14-.51.46v8.44s-4.22,1-4.51,1.11a.68.68,0,0,0-.49.65v5.31a.68.68,0,0,0,.68.69h4.32v12.77c0,9.48,6.66,10.41,11.15,10.41a19.22,19.22,0,0,0,4.9-.8.64.64,0,0,0,.39-.62v-5.84a.7.7,0,0,0-.68-.69c-.37,0-1.29.15-2.24.15-3,0-4.07-1.42-4.07-3.25V148.57h6.19a.68.68,0,0,0,.68-.69v-6.65A.67.67,0,0,0,114.58,140.55Z" style="fill:#fff"/><text transform="translate(39.63 107.97)" style="font-size:26.258756637573242px;fill:#fff;font-family:Lato-Light, Lato">Project Sync for</text></svg>